<?xml version="1.0" encoding="utf-8"?>
<!-- Generator: Adobe Illustrator 21.0.2, SVG Export Plug-In . SVG Version: 6.00 Build 0)  -->
<svg version="1.1" id="Layer_1" xmlns="http://www.w3.org/2000/svg" xmlns:xlink="http://www.w3.org/1999/xlink" x="0px" y="0px"
	 viewBox="0 0 310 70" style="enable-background:new 0 0 310 70;" xml:space="preserve">
<style type="text/css">
	.st0{fill:#69BFBA;}
</style>
<g>
	<path class="st0" d="M47.5,40.9c0.8,0.2,1.5,0.4,2.1,0.8c0.6,0.4,1,0.9,1.4,1.5c0.3,0.6,0.5,1.3,0.5,2.2c0,1.6-0.6,2.8-1.8,3.6
		c-0.4,0.3-0.9,0.5-1.4,0.7h4.4c0.4-0.5,0.7-1,1-1.5c0.4-0.8,0.5-1.7,0.5-2.7c0-1.3-0.2-2.4-0.7-3.3c-0.5-0.9-1.1-1.6-1.9-2.2
		c-0.8-0.6-1.8-1-2.9-1.2c-1.1-0.3-2.3-0.4-3.6-0.4h-7.8v11.3h2.7v-9h4.8C45.8,40.7,46.7,40.8,47.5,40.9z"/>
	<rect x="37.2" y="52.6" class="st0" width="2.7" height="12.3"/>
	<rect x="82.4" y="52.6" class="st0" width="2.7" height="12.3"/>
	<polygon class="st0" points="44.5,52.6 51.8,65 55.1,65 47.6,52.6 	"/>
	<polygon class="st0" points="57.5,40.7 66.4,40.7 66.4,49.7 69.2,49.7 69.2,40.7 78.1,40.7 78.1,38.3 57.5,38.3 	"/>
	<rect x="66.4" y="52.6" class="st0" width="2.7" height="12.3"/>
	<path class="st0" d="M29.1,56.1c-0.5,1.4-1.2,2.6-2.2,3.7c-1,1.1-2.1,1.9-3.5,2.5c-1.4,0.6-2.9,0.9-4.6,0.9c-1.7,0-3.2-0.3-4.6-0.9
		c-1.4-0.6-2.5-1.5-3.5-2.5c-1-1.1-1.7-2.3-2.2-3.7c-0.4-1.1-0.6-2.3-0.7-3.5H5c0.1,1.6,0.4,3.2,1,4.6c0.7,1.7,1.7,3.2,2.9,4.4
		c1.2,1.2,2.7,2.2,4.4,2.9c1.7,0.7,3.5,1.1,5.5,1.1c2,0,3.8-0.3,5.5-1.1c1.7-0.7,3.2-1.7,4.4-2.9c1.2-1.2,2.2-2.7,2.9-4.4
		c0.6-1.4,0.9-3,1-4.6h-2.9C29.7,53.9,29.5,55,29.1,56.1z"/>
	<path class="st0" d="M171.6,47.2c0.5-1.4,1.2-2.6,2.2-3.7c1-1.1,2.1-1.9,3.5-2.5c1.4-0.6,2.9-0.9,4.6-0.9c1.7,0,3.2,0.3,4.6,0.9
		c1.4,0.6,2.5,1.5,3.5,2.5c1,1.1,1.7,2.3,2.2,3.7c0.3,0.8,0.5,1.6,0.6,2.4h2.9c-0.2-1.3-0.4-2.5-0.9-3.6c-0.7-1.7-1.7-3.2-2.9-4.4
		c-1.2-1.2-2.7-2.2-4.4-2.9c-1.7-0.7-3.5-1.1-5.5-1.1c-2,0-3.8,0.4-5.5,1.1c-1.7,0.7-3.2,1.7-4.4,2.9c-1.2,1.2-2.2,2.7-2.9,4.4
		c-0.5,1.1-0.8,2.3-0.9,3.6h2.9C171.1,48.8,171.3,48,171.6,47.2z"/>
	<path class="st0" d="M264,47.2c0.5-1.4,1.2-2.6,2.2-3.7c1-1.1,2.1-1.9,3.5-2.5c1.4-0.6,2.9-0.9,4.7-0.9c0.9,0,1.6,0.1,2.4,0.3
		c0.7,0.2,1.4,0.5,2.1,0.8c0.6,0.3,1.2,0.7,1.6,1.1c0.5,0.4,0.8,0.9,1.1,1.3l2.3-1.7c-0.4-0.7-1-1.2-1.7-1.8c-0.7-0.5-1.4-1-2.3-1.3
		c-0.8-0.4-1.7-0.7-2.7-0.9c-0.9-0.2-1.9-0.3-2.9-0.3c-2,0-3.8,0.4-5.5,1.1c-1.7,0.7-3.2,1.7-4.4,2.9c-1.2,1.2-2.2,2.7-2.9,4.4
		c-0.5,1.1-0.8,2.3-0.9,3.6h2.9C263.6,48.8,263.8,48,264,47.2z"/>
	<rect x="82.4" y="38.3" class="st0" width="2.7" height="11.3"/>
	<path class="st0" d="M290.4,49.7h5.2c-0.2-0.1-0.4-0.2-0.7-0.2c-0.7-0.3-1.3-0.6-1.8-1c-0.5-0.4-1-0.9-1.3-1.4
		c-0.3-0.6-0.5-1.3-0.5-2.1c0-0.9,0.2-1.6,0.5-2.2c0.3-0.6,0.8-1.1,1.3-1.6c0.6-0.4,1.2-0.7,1.8-0.9c0.7-0.2,1.3-0.3,2-0.3
		c1.3,0,2.4,0.2,3.3,0.7c0.9,0.5,1.6,1.1,2.2,1.9l2.1-1.7c-0.7-0.9-1.6-1.6-2.9-2.3c-1.3-0.6-2.8-1-4.6-1c-1,0-2,0.1-3,0.4
		c-1,0.3-1.9,0.7-2.7,1.3c-0.8,0.6-1.5,1.4-2,2.3c-0.5,0.9-0.8,2-0.8,3.3c0,1.2,0.2,2.2,0.6,3C289.6,48.7,290,49.2,290.4,49.7z"/>
	<path class="st0" d="M143.7,40.7h5.4c2,0,3.8,0.3,5.2,0.9c1.5,0.6,2.7,1.4,3.7,2.5c1,1,1.7,2.2,2.2,3.5c0.2,0.7,0.4,1.3,0.5,2h2.9
		c-0.2-1.4-0.5-2.7-1.1-3.8c-0.8-1.7-1.9-3.1-3.3-4.2c-1.3-1.1-2.8-2-4.5-2.5c-1.7-0.6-3.3-0.8-5-0.8H141v11.3h2.7V40.7z"/>
	<path class="st0" d="M19.1,31.1c1.2-0.3,2.3-0.7,3.2-1.3c0.9-0.6,1.7-1.4,2.3-2.4c0.6-1,0.9-2.2,0.9-3.7c0-1.8-0.5-3.3-1.6-4.3
		c-1.1-1.1-2.5-1.7-4.1-2v-0.1c1.4-0.4,2.5-1.1,3.3-2.1c0.9-1,1.3-2.2,1.3-3.7c0-1.2-0.2-2.2-0.7-3.1c-0.5-0.8-1.1-1.5-1.9-2.1
		c-0.8-0.5-1.6-0.9-2.6-1.2c-1-0.2-2-0.4-3-0.4H5.8v26.7h9.6C16.6,31.5,17.9,31.4,19.1,31.1z M10.5,8.8h3.8c1.8,0,3.1,0.2,4,0.7
		c0.9,0.5,1.3,1.4,1.3,2.6c0,1.2-0.4,2-1.2,2.7c-0.8,0.6-2,0.9-3.6,0.9h-4.2V8.8z M10.5,27.5v-7.8h4.4c1.9,0,3.4,0.3,4.3,0.8
		c1,0.6,1.4,1.5,1.4,2.9c0,0.9-0.2,1.6-0.6,2.1c-0.4,0.5-0.9,0.9-1.5,1.2c-0.6,0.3-1.2,0.5-1.9,0.5c-0.7,0.1-1.4,0.1-2,0.1H10.5z"/>
	<path class="st0" d="M8.5,47.2c0.5-1.4,1.2-2.6,2.2-3.7c0.9-1.1,2.1-1.9,3.5-2.5s2.9-0.9,4.6-0.9c1.7,0,3.2,0.3,4.6,0.9
		c1.4,0.6,2.5,1.5,3.5,2.5c1,1.1,1.7,2.3,2.2,3.7c0.3,0.8,0.5,1.6,0.6,2.4h2.9c-0.2-1.3-0.4-2.5-0.9-3.6c-0.7-1.7-1.7-3.2-2.9-4.4
		c-1.2-1.2-2.7-2.2-4.4-2.9c-1.7-0.7-3.5-1.1-5.5-1.1c-2,0-3.8,0.4-5.5,1.1c-1.7,0.7-3.2,1.7-4.4,2.9c-1.2,1.2-2.2,2.7-2.9,4.4
		c-0.5,1.1-0.8,2.3-0.9,3.6H8C8.1,48.8,8.3,48,8.5,47.2z"/>
	<polygon class="st0" points="70,27.3 58.7,27.3 58.7,4.9 54,4.9 54,31.5 70,31.5 	"/>
	<polygon class="st0" points="48.9,27.3 35.3,27.3 35.3,19.8 47.6,19.8 47.6,15.8 35.3,15.8 35.3,9 48.2,9 48.2,4.9 30.6,4.9 
		30.6,31.5 48.9,31.5 	"/>
	<polygon class="st0" points="176.9,31.5 181.7,31.5 181.7,9 189.8,9 189.8,4.9 168.8,4.9 168.8,9 176.9,9 	"/>
	<rect x="236.1" y="52.6" class="st0" width="2.7" height="12.3"/>
	<rect x="220.2" y="38.3" class="st0" width="2.7" height="11.3"/>
	<polygon class="st0" points="227.2,40.7 236.1,40.7 236.1,49.7 238.8,49.7 238.8,40.7 247.7,40.7 247.7,38.3 227.2,38.3 	"/>
	<polygon class="st0" points="204.6,38.3 201.2,38.3 201.2,49.7 203.9,49.7 203.9,42.1 204,42.1 209.1,49.7 212.3,49.7 	"/>
	<polygon class="st0" points="220.2,61 220.1,61 214.4,52.6 211.1,52.6 219.5,65 222.9,65 222.9,52.6 220.2,52.6 	"/>
	<path class="st0" d="M278.7,62.3c-1.4,0.6-2.8,0.9-4.4,0.9c-1.7,0-3.2-0.3-4.6-0.9c-1.4-0.6-2.3-1.5-3.2-2.5
		c-1-1.1-1.9-2.3-2.5-3.7c-0.4-1.1-0.6-2.2-0.7-3.4h-2.9c0.1,1.6,0.4,3.2,1,4.6c0.7,1.7,1.7,3.2,2.9,4.4c1.2,1.2,2.7,2.2,4.4,2.9
		c1.7,0.7,3.6,1.1,5.6,1.1c1.2,0,2.3-0.1,3.3-0.4c1-0.3,1.9-0.6,2.8-1.1c0.8-0.5,1.6-1,2.2-1.6c0.6-0.6,1.2-1.2,1.6-1.9l-2.1-1.4
		C281.2,60.7,280.1,61.7,278.7,62.3z"/>
	<path class="st0" d="M304.3,54.7c-0.5-0.8-1-1.5-1.7-2h-6.2c0.6,0.2,1.3,0.4,1.9,0.6c0.8,0.3,1.5,0.6,2.1,1
		c0.6,0.4,1.1,0.9,1.4,1.5c0.4,0.6,0.5,1.4,0.5,2.3c0,0.9-0.2,1.6-0.5,2.2c-0.4,0.6-0.8,1.2-1.4,1.6c-0.6,0.4-1.2,0.8-1.9,1
		c-0.7,0.2-1.4,0.3-2.1,0.3c-1.4,0-2.6-0.3-3.7-1c-1-0.6-1.9-1.4-2.4-2.4l-2.3,1.7c0.5,0.7,1,1.2,1.7,1.7c0.6,0.5,1.3,0.9,2,1.2
		c0.7,0.3,1.5,0.6,2.3,0.7c0.8,0.2,1.6,0.2,2.4,0.2c1.1,0,2.1-0.2,3.1-0.5c1-0.3,2-0.8,2.8-1.4c0.8-0.6,1.5-1.4,2-2.4
		c0.5-1,0.8-2.1,0.8-3.4C305,56.7,304.8,55.6,304.3,54.7z"/>
	<rect x="252" y="52.6" class="st0" width="3" height="12.3"/>
	<rect x="99.6" y="52.6" class="st0" width="2.7" height="12.3"/>
	<rect x="252" y="38.3" class="st0" width="3" height="11.3"/>
	<polygon class="st0" points="88,23.8 87.9,23.8 81,4.9 73.6,4.9 73.6,31.5 78.1,31.5 78.1,10.1 78.2,10.1 86.1,31.5 89.5,31.5 
		97.6,10.1 97.6,10.1 97.6,31.5 102.3,31.5 102.3,4.9 94.9,4.9 	"/>
	<path class="st0" d="M131.9,56.1c-0.5,1.4-1.2,2.6-2.2,3.7c-1,1.1-2.1,1.9-3.5,2.5c-1.4,0.6-2.9,0.9-4.6,0.9
		c-1.7,0-3.2-0.3-4.6-0.9c-1.4-0.6-2.5-1.5-3.5-2.5c-1-1.1-1.7-2.3-2.2-3.7c-0.4-1.1-0.6-2.3-0.7-3.5h-2.9c0.1,1.6,0.4,3.2,1,4.6
		c0.7,1.7,1.7,3.2,2.9,4.4c1.2,1.2,2.7,2.2,4.4,2.9c1.7,0.7,3.5,1.1,5.5,1.1c2,0,3.8-0.3,5.5-1.1c1.7-0.7,3.2-1.7,4.4-2.9
		c1.2-1.2,2.2-2.7,2.9-4.4c0.6-1.4,0.9-3,1-4.6h-2.9C132.5,53.9,132.3,55,131.9,56.1z"/>
	<path class="st0" d="M111.4,47.2c0.5-1.4,1.2-2.6,2.2-3.7c0.9-1.1,2.1-1.9,3.5-2.5c1.4-0.6,2.9-0.9,4.6-0.9c1.7,0,3.2,0.3,4.6,0.9
		c1.4,0.6,2.5,1.5,3.5,2.5c1,1.1,1.7,2.3,2.2,3.7c0.3,0.8,0.5,1.6,0.6,2.4h2.9c-0.2-1.3-0.4-2.5-0.9-3.6c-0.7-1.7-1.7-3.2-2.9-4.4
		c-1.2-1.2-2.7-2.2-4.4-2.9c-1.7-0.7-3.5-1.1-5.5-1.1c-2,0-3.8,0.4-5.5,1.1c-1.7,0.7-3.2,1.7-4.4,2.9c-1.2,1.2-2.2,2.7-2.9,4.4
		c-0.5,1.1-0.8,2.3-0.9,3.6h2.9C110.9,48.8,111.1,48,111.4,47.2z"/>
	<rect x="99.6" y="38.3" class="st0" width="2.7" height="11.3"/>
	<polygon class="st0" points="159.7,24.8 159.7,24.8 147.3,4.9 141,4.9 141,31.5 145.7,31.5 145.7,10.9 145.8,10.9 158.5,31.5 
		164.5,31.5 164.5,4.9 159.7,4.9 	"/>
	<rect x="201.2" y="52.6" class="st0" width="2.7" height="12.3"/>
	<path class="st0" d="M192.1,56.1c-0.5,1.4-1.2,2.6-2.2,3.7c-1,1.1-2.1,1.9-3.5,2.5c-1.4,0.6-2.9,0.9-4.6,0.9
		c-1.7,0-3.2-0.3-4.6-0.9c-1.4-0.6-2.5-1.5-3.5-2.5c-1-1.1-1.7-2.3-2.2-3.7c-0.4-1.1-0.6-2.3-0.7-3.5H168c0.1,1.6,0.4,3.2,1,4.6
		c0.7,1.7,1.7,3.2,2.9,4.4c1.2,1.2,2.7,2.2,4.4,2.9c1.7,0.7,3.5,1.1,5.5,1.1c2,0,3.8-0.3,5.5-1.1c1.7-0.7,3.2-1.7,4.4-2.9
		c1.2-1.2,2.2-2.7,2.9-4.4c0.6-1.4,0.9-3,1-4.6h-2.9C192.7,53.9,192.5,55,192.1,56.1z"/>
	<path class="st0" d="M131.9,8c-1.3-1.2-2.8-2.1-4.6-2.8c-1.8-0.7-3.7-1-5.8-1c-2.1,0-4,0.3-5.7,1c-1.7,0.6-3.3,1.6-4.5,2.8
		c-1.3,1.2-2.3,2.7-3,4.4c-0.7,1.7-1.1,3.6-1.1,5.8c0,2.1,0.4,4,1.1,5.7c0.7,1.7,1.7,3.2,3,4.4c1.3,1.2,2.8,2.2,4.5,2.9
		c1.7,0.7,3.6,1,5.7,1c2.1,0,4-0.3,5.8-1c1.8-0.7,3.3-1.7,4.6-2.9c1.3-1.2,2.3-2.7,3-4.4c0.7-1.7,1.1-3.6,1.1-5.7
		c0-2.1-0.4-4.1-1.1-5.8C134.2,10.6,133.2,9.2,131.9,8z M130.2,22.1c-0.4,1.2-1.1,2.2-1.9,3.1c-0.8,0.9-1.8,1.6-2.9,2.1
		c-1.1,0.5-2.4,0.7-3.7,0.7c-1.4,0-2.6-0.2-3.7-0.7c-1.1-0.5-2.1-1.2-2.9-2.1c-0.8-0.9-1.4-1.9-1.9-3.1c-0.4-1.2-0.7-2.5-0.7-3.9
		c0-1.4,0.2-2.7,0.7-3.8c0.4-1.2,1.1-2.2,1.9-3.1c0.8-0.9,1.8-1.6,2.9-2.1c1.1-0.5,2.4-0.7,3.7-0.7c1.4,0,2.6,0.2,3.8,0.7
		c1.1,0.5,2.1,1.2,2.9,2.1c0.8,0.9,1.4,1.9,1.9,3.1c0.4,1.2,0.7,2.5,0.7,3.8C130.8,19.6,130.6,20.9,130.2,22.1z"/>
	<path class="st0" d="M160.3,55.7c-0.5,1.3-1.2,2.5-2.2,3.5c-1,1-2.2,1.8-3.7,2.5c-1.5,0.6-3.2,0.9-5.2,0.9h-5.4v-9.9H141V65h8.8
		c1.7,0,3.3-0.3,5-0.8c1.7-0.5,3.2-1.4,4.5-2.5c1.3-1.1,2.4-2.5,3.3-4.2c0.7-1.4,1.1-3,1.2-4.9h-2.9
		C160.8,53.7,160.6,54.7,160.3,55.7z"/>
</g>
</svg>
